  0
SECTION
  2
HEADER
  9
$ACADVER
  1
AC1018
  9
$ACADMAINTVER
 70
     0
  9
$DWGCODEPAGE
  3
ANSI_1251
  9
$INSBASE
 10
0.0
 20
0.0
 30
0.0
  9
$EXTMIN
 10
12.96512312655083
 20
61.90393218813437
 30
0.0
  9
$EXTMAX
 10
629.8361909384162
 20
601.9751666666666
 30
0.0
  9
$LIMMIN
 10
0.0
 20
0.0
  9
$LIMMAX
 10
420.0
 20
297.0
  9
$ORTHOMODE
 70
     0
  9
$REGENMODE
 70
     1
  9
$FILLMODE
 70
     1
  9
$QTEXTMODE
 70
     0
  9
$MIRRTEXT
 70
     0
  9
$LTSCALE
 40
1.0
  9
$ATTMODE
 70
     1
  9
$TEXTSIZE
 40
2.5
  9
$TRACEWID
 40
1.0
  9
$TEXTSTYLE
  7
Standard
  9
$CLAYER
  8
etch
  9
$CELTYPE
  6
ByLayer
  9
$CECOLOR
 62
   256
  9
$CELTSCALE
 40
1.0
  9
$DISPSILH
 70
     0
  9
$DIMSCALE
 40
1.0
  9
$DIMASZ
 40
2.5
  9
$DIMEXO
 40
0.625
  9
$DIMDLI
 40
3.75
  9
$DIMRND
 40
0.0
  9
$DIMDLE
 40
0.0
  9
$DIMEXE
 40
1.25
  9
$DIMTP
 40
0.0
  9
$DIMTM
 40
0.0
  9
$DIMTXT
 40
2.5
  9
$DIMCEN
 40
2.5
  9
$DIMTSZ
 40
0.0
  9
$DIMTOL
 70
     0
  9
$DIMLIM
 70
     0
  9
$DIMTIH
 70
     0
  9
$DIMTOH
 70
     0
  9
$DIMSE1
 70
     0
  9
$DIMSE2
 70
     0
  9
$DIMTAD
 70
     1
  9
$DIMZIN
 70
     8
  9
$DIMBLK
  1

  9
$DIMASO
 70
     1
  9
$DIMSHO
 70
     1
  9
$DIMPOST
  1

  9
$DIMAPOST
  1

  9
$DIMALT
 70
     0
  9
$DIMALTD
 70
     3
  9
$DIMALTF
 40
0.03937007874016
  9
$DIMLFAC
 40
1.0
  9
$DIMTOFL
 70
     1
  9
$DIMTVP
 40
0.0
  9
$DIMTIX
 70
     0
  9
$DIMSOXD
 70
     0
  9
$DIMSAH
 70
     0
  9
$DIMBLK1
  1

  9
$DIMBLK2
  1

  9
$DIMSTYLE
  2
ISO-25
  9
$DIMCLRD
 70
     0
  9
$DIMCLRE
 70
     0
  9
$DIMCLRT
 70
     0
  9
$DIMTFAC
 40
1.0
  9
$DIMGAP
 40
0.625
  9
$DIMJUST
 70
     0
  9
$DIMSD1
 70
     0
  9
$DIMSD2
 70
     0
  9
$DIMTOLJ
 70
     0
  9
$DIMTZIN
 70
     8
  9
$DIMALTZ
 70
     0
  9
$DIMALTTZ
 70
     0
  9
$DIMUPT
 70
     0
  9
$DIMDEC
 70
     2
  9
$DIMTDEC
 70
     2
  9
$DIMALTU
 70
     2
  9
$DIMALTTD
 70
     3
  9
$DIMTXSTY
  7
Standard
  9
$DIMAUNIT
 70
     0
  9
$DIMADEC
 70
     0
  9
$DIMALTRND
 40
0.0
  9
$DIMAZIN
 70
     0
  9
$DIMDSEP
 70
    44
  9
$DIMATFIT
 70
     3
  9
$DIMFRAC
 70
     0
  9
$DIMLDRBLK
  1

  9
$DIMLUNIT
 70
     2
  9
$DIMLWD
 70
    -2
  9
$DIMLWE
 70
    -2
  9
$DIMTMOVE
 70
     0
  9
$LUNITS
 70
     2
  9
$LUPREC
 70
     4
  9
$SKETCHINC
 40
1.0
  9
$FILLETRAD
 40
0.0
  9
$AUNITS
 70
     0
  9
$AUPREC
 70
     0
  9
$MENU
  1
.
  9
$ELEVATION
 40
0.0
  9
$PELEVATION
 40
0.0
  9
$THICKNESS
 40
0.0
  9
$LIMCHECK
 70
     0
  9
$CHAMFERA
 40
0.0
  9
$CHAMFERB
 40
0.0
  9
$CHAMFERC
 40
0.0
  9
$CHAMFERD
 40
0.0
  9
$SKPOLY
 70
     0
  9
$TDCREATE
 40
2457622.819022801
  9
$TDUCREATE
 40
2457622.485689468
  9
$TDUPDATE
 40
2457623.856152234
  9
$TDUUPDATE
 40
2457623.522818901
  9
$TDINDWG
 40
0.0880935417
  9
$TDUSRTIMER
 40
0.0880935417
  9
$USRTIMER
 70
     1
  9
$ANGBASE
 50
0.0
  9
$ANGDIR
 70
     0
  9
$PDMODE
 70
     0
  9
$PDSIZE
 40
0.0
  9
$PLINEWID
 40
0.0
  9
$SPLFRAME
 70
     0
  9
$SPLINETYPE
 70
     6
  9
$SPLINESEGS
 70
     8
  9
$HANDSEED
  5
1F0
  9
$SURFTAB1
 70
     6
  9
$SURFTAB2
 70
     6
  9
$SURFTYPE
 70
     6
  9
$SURFU
 70
     6
  9
$SURFV
 70
     6
  9
$UCSBASE
  2

  9
$UCSNAME
  2

  9
$UCSORG
 10
0.0
 20
0.0
 30
0.0
  9
$UCSXDIR
 10
1.0
 20
0.0
 30
0.0
  9
$UCSYDIR
 10
0.0
 20
1.0
 30
0.0
  9
$UCSORTHOREF
  2

  9
$UCSORTHOVIEW
 70
     0
  9
$UCSORGTOP
 10
0.0
 20
0.0
 30
0.0
  9
$UCSORGBOTTOM
 10
0.0
 20
0.0
 30
0.0
  9
$UCSORGLEFT
 10
0.0
 20
0.0
 30
0.0
  9
$UCSORGRIGHT
 10
0.0
 20
0.0
 30
0.0
  9
$UCSORGFRONT
 10
0.0
 20
0.0
 30
0.0
  9
$UCSORGBACK
 10
0.0
 20
0.0
 30
0.0
  9
$PUCSBASE
  2

  9
$PUCSNAME
  2

  9
$PUCSORG
 10
0.0
 20
0.0
 30
0.0
  9
$PUCSXDIR
 10
1.0
 20
0.0
 30
0.0
  9
$PUCSYDIR
 10
0.0
 20
1.0
 30
0.0
  9
$PUCSORTHOREF
  2

  9
$PUCSORTHOVIEW
 70
     0
  9
$PUCSORGTOP
 10
0.0
 20
0.0
 30
0.0
  9
$PUCSORGBOTTOM
 10
0.0
 20
0.0
 30
0.0
  9
$PUCSORGLEFT
 10
0.0
 20
0.0
 30
0.0
  9
$PUCSORGRIGHT
 10
0.0
 20
0.0
 30
0.0
  9
$PUCSORGFRONT
 10
0.0
 20
0.0
 30
0.0
  9
$PUCSORGBACK
 10
0.0
 20
0.0
 30
0.0
  9
$USERI1
 70
     0
  9
$USERI2
 70
     0
  9
$USERI3
 70
     0
  9
$USERI4
 70
     0
  9
$USERI5
 70
     0
  9
$USERR1
 40
0.0
  9
$USERR2
 40
0.0
  9
$USERR3
 40
0.0
  9
$USERR4
 40
0.0
  9
$USERR5
 40
0.0
  9
$WORLDVIEW
 70
     1
  9
$SHADEDGE
 70
     3
  9
$SHADEDIF
 70
    70
  9
$TILEMODE
 70
     1
  9
$MAXACTVP
 70
    64
  9
$PINSBASE
 10
0.0
 20
0.0
 30
0.0
  9
$PLIMCHECK
 70
     0
  9
$PEXTMIN
 10
1.000000000000000E+20
 20
1.000000000000000E+20
 30
1.000000000000000E+20
  9
$PEXTMAX
 10
-1.000000000000000E+20
 20
-1.000000000000000E+20
 30
-1.000000000000000E+20
  9
$PLIMMIN
 10
0.0
 20
0.0
  9
$PLIMMAX
 10
420.0
 20
297.0
  9
$UNITMODE
 70
     0
  9
$VISRETAIN
 70
     1
  9
$PLINEGEN
 70
     0
  9
$PSLTSCALE
 70
     1
  9
$TREEDEPTH
 70
  3020
  9
$CMLSTYLE
  2
Standard
  9
$CMLJUST
 70
     0
  9
$CMLSCALE
 40
20.0
  9
$PROXYGRAPHICS
 70
     1
  9
$MEASUREMENT
 70
     1
  9
$CELWEIGHT
370
    -1
  9
$ENDCAPS
280
     0
  9
$JOINSTYLE
280
     0
  9
$LWDISPLAY
290
     0
  9
$INSUNITS
 70
     4
  9
$HYPERLINKBASE
  1

  9
$STYLESHEET
  1

  9
$XEDIT
290
     1
  9
$CEPSNTYPE
380
     0
  9
$PSTYLEMODE
290
     1
  9
$FINGERPRINTGUID
  2
{61121CD9-BD5A-4248-A52D-C4B0ABB1D6DE}
  9
$VERSIONGUID
  2
{565C12DD-F5E8-4C09-AC32-100F4BB89336}
  9
$EXTNAMES
290
     1
  9
$PSVPSCALE
 40
0.0
  9
$OLESTARTUP
290
     0
  9
$SORTENTS
280
   127
  9
$INDEXCTL
280
     0
  9
$HIDETEXT
280
     1
  9
$XCLIPFRAME
290
     0
  9
$HALOGAP
280
     0
  9
$OBSCOLOR
 70
   257
  9
$OBSLTYPE
280
     0
  9
$INTERSECTIONDISPLAY
280
     0
  9
$INTERSECTIONCOLOR
 70
   257
  9
$DIMASSOC
280
     2
  9
$PROJECTNAME
  1

  0
ENDSEC
  0
SECTION
  2
CLASSES
  0
CLASS
  1
ACDBDICTIONARYWDFLT
  2
AcDbDictionaryWithDefault
  3
ObjectDBX Classes
 90
        0
 91
        1
280
     0
281
     0
  0
ENDSEC
  0
SECTION
  2
TABLES
  0
TABLE
  2
VPORT
  5
8
330
0
100
AcDbSymbolTable
 70
     2
  0
VPORT
  5
1EF
330
8
100
AcDbSymbolTableRecord
100
AcDbViewportTableRecord
  2
*Active
 70
     0
 10
0.0
 20
0.0
 11
1.0
 21
1.0
 12
506.7651412503099
 22
301.0007197884271
 13
0.0
 23
0.0
 14
10.0
 24
10.0
 15
10.0
 25
10.0
 16
0.0
 26
0.0
 36
1.0
 17
0.0
 27
0.0
 37
0.0
 40
608.8192491377224
 41
1.855822550831792
 42
50.0
 43
0.0
 44
0.0
 50
0.0
 51
0.0
 71
     0
 72
  1000
 73
     1
 74
     3
 75
     0
 76
     0
 77
     0
 78
     0
281
     0
 65
     1
110
0.0
120
0.0
130
0.0
111
1.0
121
0.0
131
0.0
112
0.0
122
1.0
132
0.0
 79
     0
146
0.0
  0
ENDTAB
  0
TABLE
  2
LTYPE
  5
5
330
0
100
AcDbSymbolTable
 70
     2
  0
LTYPE
  5
14
330
5
100
AcDbSymbolTableRecord
100
AcDbLinetypeTableRecord
  2
ByBlock
 70
     0
  3

 72
    65
 73
     0
 40
0.0
  0
LTYPE
  5
15
330
5
100
AcDbSymbolTableRecord
100
AcDbLinetypeTableRecord
  2
ByLayer
 70
     0
  3

 72
    65
 73
     0
 40
0.0
  0
LTYPE
  5
16
330
5
100
AcDbSymbolTableRecord
100
AcDbLinetypeTableRecord
  2
Continuous
 70
     0
  3
Solid line
 72
    65
 73
     0
 40
0.0
  0
LTYPE
  5
81
330
5
100
AcDbSymbolTableRecord
100
AcDbLinetypeTableRecord
  2
ACAD_ISO02W100
 70
     0
  3
ISO dash __ __ __ __ __ __ __ __ __ __ __ __ __
 72
    65
 73
     2
 40
15.0
 49
12.0
 74
     0
 49
-3.0
 74
     0
  0
ENDTAB
  0
TABLE
  2
LAYER
  5
2
330
0
100
AcDbSymbolTable
 70
     4
  0
LAYER
  5
10
330
2
100
AcDbSymbolTableRecord
100
AcDbLayerTableRecord
  2
0
 70
     0
 62
     7
  6
Continuous
370
    -3
390
F
  0
LAYER
  5
2E
330
2
100
AcDbSymbolTableRecord
100
AcDbLayerTableRecord
  2
cut-off
 70
     0
 62
     7
  6
Continuous
370
    -3
390
F
  0
LAYER
  5
82
330
2
100
AcDbSymbolTableRecord
100
AcDbLayerTableRecord
  2
stock
 70
     0
 62
     7
  6
ACAD_ISO02W100
370
    -3
390
F
  0
LAYER
  5
8C
330
2
100
AcDbSymbolTableRecord
100
AcDbLayerTableRecord
  2
etch
 70
     0
 62
     1
  6
Continuous
370
    -3
390
F
  0
ENDTAB
  0
TABLE
  2
STYLE
  5
3
330
0
100
AcDbSymbolTable
 70
     2
  0
STYLE
  5
11
330
3
100
AcDbSymbolTableRecord
100
AcDbTextStyleTableRecord
  2
Standard
 70
     0
 40
0.0
 41
1.0
 50
0.0
 71
     0
 42
2.5
  3
txt
  4

  0
STYLE
  5
80
330
3
100
AcDbSymbolTableRecord
100
AcDbTextStyleTableRecord
  2

 70
     1
 40
0.0
 41
1.0
 50
0.0
 71
     0
 42
2.5
  3
ltypeshp.shx
  4

  0
ENDTAB
  0
TABLE
  2
VIEW
  5
6
330
0
100
AcDbSymbolTable
 70
     0
  0
ENDTAB
  0
TABLE
  2
UCS
  5
7
330
0
100
AcDbSymbolTable
 70
     0
  0
ENDTAB
  0
TABLE
  2
APPID
  5
9
330
0
100
AcDbSymbolTable
 70
     1
  0
APPID
  5
12
330
9
100
AcDbSymbolTableRecord
100
AcDbRegAppTableRecord
  2
ACAD
 70
     0
  0
ENDTAB
  0
TABLE
  2
DIMSTYLE
  5
A
330
0
100
AcDbSymbolTable
 70
     1
100
AcDbDimStyleTable
 71
     0
  0
DIMSTYLE
105
29
330
A
100
AcDbSymbolTableRecord
100
AcDbDimStyleTableRecord
  2
ISO-25
 70
     0
 41
2.5
 42
0.625
 43
3.75
 44
1.25
 73
     0
 74
     0
 77
     1
 78
     8
140
2.5
141
2.5
143
0.03937007874016
147
0.625
171
     3
172
     1
271
     2
272
     2
274
     3
278
    44
283
     0
284
     8
340
11
  0
ENDTAB
  0
TABLE
  2
BLOCK_RECORD
  5
1
330
0
100
AcDbSymbolTable
 70
     3
  0
BLOCK_RECORD
  5
21
330
1
100
AcDbSymbolTableRecord
100
AcDbBlockTableRecord
  2
*Model_Space
340
24
  0
BLOCK_RECORD
  5
1D
330
1
100
AcDbSymbolTableRecord
100
AcDbBlockTableRecord
  2
*Paper_Space
340
20
  0
BLOCK_RECORD
  5
25
330
1
100
AcDbSymbolTableRecord
100
AcDbBlockTableRecord
  2
*Paper_Space0
340
28
  0
BLOCK_RECORD
  5
DE
330
1
100
AcDbSymbolTableRecord
100
AcDbBlockTableRecord
  2
b1
340
0
310
2800000020000000200000000100080000000000000400000000000000000000000000000000000000000000000080000080000000808000800000008000800080800000C0C0C000C0DCC000F0CAA6000020400000206000002080000020A0000020C0000020E00000400000004020000040400000406000004080000040A0
310
000040C0000040E00000600000006020000060400000606000006080000060A0000060C0000060E00000800000008020000080400000806000008080000080A0000080C0000080E00000A0000000A0200000A0400000A0600000A0800000A0A00000A0C00000A0E00000C0000000C0200000C0400000C0600000C0800000C0
310
A00000C0C00000C0E00000E0000000E0200000E0400000E0600000E0800000E0A00000E0C00000E0E00040000000400020004000400040006000400080004000A0004000C0004000E00040200000402020004020400040206000402080004020A0004020C0004020E000404000004040200040404000404060004040800040
310
40A0004040C0004040E00040600000406020004060400040606000406080004060A0004060C0004060E00040800000408020004080400040806000408080004080A0004080C0004080E00040A0000040A0200040A0400040A0600040A0800040A0A00040A0C00040A0E00040C0000040C0200040C0400040C0600040C08000
310
40C0A00040C0C00040C0E00040E0000040E0200040E0400040E0600040E0800040E0A00040E0C00040E0E00080000000800020008000400080006000800080008000A0008000C0008000E00080200000802020008020400080206000802080008020A0008020C0008020E00080400000804020008040400080406000804080
310
008040A0008040C0008040E00080600000806020008060400080606000806080008060A0008060C0008060E00080800000808020008080400080806000808080008080A0008080C0008080E00080A0000080A0200080A0400080A0600080A0800080A0A00080A0C00080A0E00080C0000080C0200080C0400080C0600080C0
310
800080C0A00080C0C00080C0E00080E0000080E0200080E0400080E0600080E0800080E0A00080E0C00080E0E000C0000000C0002000C0004000C0006000C0008000C000A000C000C000C000E000C0200000C0202000C0204000C0206000C0208000C020A000C020C000C020E000C0400000C0402000C0404000C0406000C0
310
408000C040A000C040C000C040E000C0600000C0602000C0604000C0606000C0608000C060A000C060C000C060E000C0800000C0802000C0804000C0806000C0808000C080A000C080C000C080E000C0A00000C0A02000C0A04000C0A06000C0A08000C0A0A000C0A0C000C0A0E000C0C00000C0C02000C0C04000C0C06000
310
C0C08000C0C0A000F0FBFF00A4A0A000808080000000FF0000FF000000FFFF00FF000000FF00FF00FFFF0000FFFFFF000000000000000000000000000000000000000000000000000000000000000000000000000000FFFFFFFFFFFFFFFFFFFFFFFFFFFFFFFFFFFFFF00000000000000000000000000FF0000000000000000
310
00000000000000000000FF000000000000000000000000FF000000000000000000000000000000000000FF000000000000000000000000FF000000000000000000000000000000000000FF000000000000000000000000FF000000000000000000000000000000000000FF000000000000000000000000FF00000000000000
310
0000000000000000000000FF000000000000000000000000FF000000000000000000000000000000000000FF000000000000000000000000FF000000000000000000000000000000000000FF000000000000000000000000FF000000000000000000000000000000000000FF000000000000000000000000FF000000000000
310
000000000000000000000000FF000000000000000000000000FF000000000000000000000000000000000000FF000000000000000000000000FF000000000000000000000000000000000000FF000000000000000000000000FF000000000000000000000000000000000000FF000000000000000000000000FF0000000000
310
00000000000000000000000000FF000000000000000000000000FFF9F9F9F9F9F9F9F9F9F9F9F9F9F9F9F9F9F9FF000000000000000000000000FFF9F9F9F9F9F9F9F9F9F9F9F9F9F9F9F9F9F9FF000000000000000000000000FF000000000000000000000000000000000000FF000000000000000000000000FF00000000
310
0000000000000000000000000000FF000000000000000000000000FF000000000000000000000000000000000000FF000000000000000000000000FF000000000000000000000000000000000000FF000000000000000000000000FF000000000000000000000000000000000000FF000000000000000000000000FF000000
310
000000000000000000000000000000FF000000000000000000000000FF000000000000000000000000000000000000FF000000000000000000000000FF000000000000000000000000000000000000FF000000000000000000000000FF000000000000000000000000000000000000FF000000000000000000000000FF0000
310
00000000000000000000000000000000FF000000000000000000000000FF000000000000000000000000000000000000FF000000000000000000000000FF000000000000000000000000000000000000FF000000000000000000000000FF000000000000000000000000000000000000FF000000000000000000000000FFFF
310
FFFFFFFFFFFFFFFFFFFFFFFFFFFFFFFFFF000000000000000000000000000000000000000000000000000000000000000000000000000000
1001
ACAD
1000
DesignCenter Data
1002
{
1070
     1
1070
     4
1002
}
  0
BLOCK_RECORD
  5
E9
330
1
100
AcDbSymbolTableRecord
100
AcDbBlockTableRecord
  2
b2
340
0
310
2800000020000000200000000100080000000000000400000000000000000000000000000000000000000000000080000080000000808000800000008000800080800000C0C0C000C0DCC000F0CAA6000020400000206000002080000020A0000020C0000020E00000400000004020000040400000406000004080000040A0
310
000040C0000040E00000600000006020000060400000606000006080000060A0000060C0000060E00000800000008020000080400000806000008080000080A0000080C0000080E00000A0000000A0200000A0400000A0600000A0800000A0A00000A0C00000A0E00000C0000000C0200000C0400000C0600000C0800000C0
310
A00000C0C00000C0E00000E0000000E0200000E0400000E0600000E0800000E0A00000E0C00000E0E00040000000400020004000400040006000400080004000A0004000C0004000E00040200000402020004020400040206000402080004020A0004020C0004020E000404000004040200040404000404060004040800040
310
40A0004040C0004040E00040600000406020004060400040606000406080004060A0004060C0004060E00040800000408020004080400040806000408080004080A0004080C0004080E00040A0000040A0200040A0400040A0600040A0800040A0A00040A0C00040A0E00040C0000040C0200040C0400040C0600040C08000
310
40C0A00040C0C00040C0E00040E0000040E0200040E0400040E0600040E0800040E0A00040E0C00040E0E00080000000800020008000400080006000800080008000A0008000C0008000E00080200000802020008020400080206000802080008020A0008020C0008020E00080400000804020008040400080406000804080
310
008040A0008040C0008040E00080600000806020008060400080606000806080008060A0008060C0008060E00080800000808020008080400080806000808080008080A0008080C0008080E00080A0000080A0200080A0400080A0600080A0800080A0A00080A0C00080A0E00080C0000080C0200080C0400080C0600080C0
310
800080C0A00080C0C00080C0E00080E0000080E0200080E0400080E0600080E0800080E0A00080E0C00080E0E000C0000000C0002000C0004000C0006000C0008000C000A000C000C000C000E000C0200000C0202000C0204000C0206000C0208000C020A000C020C000C020E000C0400000C0402000C0404000C0406000C0
310
408000C040A000C040C000C040E000C0600000C0602000C0604000C0606000C0608000C060A000C060C000C060E000C0800000C0802000C0804000C0806000C0808000C080A000C080C000C080E000C0A00000C0A02000C0A04000C0A06000C0A08000C0A0A000C0A0C000C0A0E000C0C00000C0C02000C0C04000C0C06000
310
C0C08000C0C0A000F0FBFF00A4A0A000808080000000FF0000FF000000FFFF00FF000000FF00FF00FFFF0000FFFFFF0000000000000000000000000000000000000000000000000000000000000000000000FFFFFFFFFFFFFFFFFF00FFFFFFFFFFFFFFFF00FFFFFFFFFFFFFFFFFF000000FF000000000000000000FF000000
310
0000000000FF000000000000000000FF0000FF000000000000000000FF0000000000000000FF000000000000000000FF0000FF000000000000000000FF0000000000000000FF000000000000000000FF0000FF000000000000000000FF0000000000000000FF000000000000000000FF0000FF000000000000000000FF0000
310
000000000000FF000000000000000000FF0000FF000000000000000000FF0000000000000000FF000000000000000000FF0000FF000000000000000000FF0000000000000000FF000000000000000000FF0000FF000000000000000000FF0000000000000000FF000000000000000000FF0000FF000000000000000000FF00
310
00000000000000FF000000000000000000FF000000FFFFFFFFFFFFFFFFFF00FFFFFFFFFFFFFFFF00FFFFFFFFFFFFFFFFFF000000FF000000000000000000FF0000000000000000FF000000000000000000FF0000FF000000000000000000FF0000000000000000FF000000000000000000FF0000FF000000000000000000FF
310
0000000000000000FF000000000000000000FF0000FF000000000000000000FF0000000000000000FF000000000000000000FF0000FF000000000000000000FF0000000000000000FF000000000000000000FF0000FF000000000000000000FF0000000000000000FF000000000000000000FF0000FF000000000000000000
310
FF0000000000000000FF000000000000000000FF0000FF000000000000000000FF0000000000000000FF000000000000000000FF000000FFFFFFFFFFFFFFFFFFFFFFFFFFFFFFFFFFFF00FFFFFFFFFFFFFFFFFF000000FF00000000000000000000000000000000FF0000000000000000000000000000FF0000000000000000
310
0000000000000000FF0000000000000000000000000000FF00000000000000000000000000000000FF0000000000000000000000000000FF00000000000000000000000000000000FF0000000000000000000000000000FF00000000000000000000000000000000FF0000000000000000000000000000FF00000000000000
310
000000000000000000FF0000000000000000000000000000FF00000000000000000000000000000000FF0000000000000000000000000000FF00000000000000000000000000000000FF0000000000000000000000000000FF00000000000000000000000000000000FF000000000000000000000000000000FFFFFFFFFFFF
310
FFFFFFFFFFFFFFFFFFFF00000000000000000000000000000000000000000000000000000000000000000000000000000000000000000000
1001
ACAD
1000
DesignCenter Data
1002
{
1070
     1
1070
     4
1002
}
  0
ENDTAB
  0
ENDSEC
  0
SECTION
  2
BLOCKS
  0
BLOCK
  5
22
330
21
100
AcDbEntity
  8
0
100
AcDbBlockBegin
  2
*Model_Space
 70
     0
 10
0.0
 20
0.0
 30
0.0
  3
*Model_Space
  1

  0
ENDBLK
  5
23
330
21
100
AcDbEntity
  8
0
100
AcDbBlockEnd
  0
BLOCK
  5
1E
330
1D
100
AcDbEntity
 67
     1
  8
0
100
AcDbBlockBegin
  2
*Paper_Space
 70
     0
 10
0.0
 20
0.0
 30
0.0
  3
*Paper_Space
  1

  0
ENDBLK
  5
1F
330
1D
100
AcDbEntity
 67
     1
  8
0
100
AcDbBlockEnd
  0
BLOCK
  5
26
330
25
100
AcDbEntity
  8
0
100
AcDbBlockBegin
  2
*Paper_Space0
 70
     0
 10
0.0
 20
0.0
 30
0.0
  3
*Paper_Space0
  1

  0
ENDBLK
  5
27
330
25
100
AcDbEntity
  8
0
100
AcDbBlockEnd
  0
BLOCK
  5
DF
330
DE
100
AcDbEntity
  8
0
100
AcDbBlockBegin
  2
b1
 70
     0
 10
0.0
 20
0.0
 30
0.0
  3
b1
  1

  0
LINE
  5
E1
330
DE
100
AcDbEntity
  8
etch
100
AcDbLine
 10
0.0
 20
186.2249999999999
 30
0.0
 11
236.0
 21
186.2249999999999
 31
0.0
  0
LINE
  5
E2
330
DE
100
AcDbEntity
  8
etch
100
AcDbLine
 10
0.0
 20
192.575
 30
0.0
 11
236.0
 21
192.575
 31
0.0
  0
LWPOLYLINE
  5
E3
330
DE
100
AcDbEntity
  8
cut-off
100
AcDbPolyline
 90
        4
 70
     0
 43
0.0
 10
236.0000000000001
 20
378.8
 10
0.0000000000000284
 20
378.8
 10
0.0
 20
0.0
 10
236.0000000000001
 20
-0.0000000000000284
  0
ARC
  5
E4
330
DE
100
AcDbEntity
  8
cut-off
100
AcDbCircle
 10
236.0000000000001
 20
368.8
 30
0.0
 40
10.0
100
AcDbArc
 50
0.0
 51
90.0
  0
ARC
  5
E5
330
DE
100
AcDbEntity
  8
cut-off
100
AcDbCircle
 10
236.0
 20
9.999999999999971
 30
0.0
 40
10.0
100
AcDbArc
 50
270.0
 51
0.0
  0
LWPOLYLINE
  5
E6
330
DE
100
AcDbEntity
  8
cut-off
100
AcDbPolyline
 90
        2
 70
     0
 43
0.0
 10
246.0
 20
9.999999999999971
 10
246.0
 20
368.8
  0
ENDBLK
  5
E0
330
DE
100
AcDbEntity
  8
0
100
AcDbBlockEnd
  0
BLOCK
  5
EA
330
E9
100
AcDbEntity
  8
0
100
AcDbBlockBegin
  2
b2
 70
     0
 10
0.0
 20
0.0
 30
0.0
  3
b2
  1

  0
LWPOLYLINE
  5
EC
330
E9
100
AcDbEntity
  8
cut-off
100
AcDbPolyline
 90
        2
 70
     0
 43
0.0
 10
5.000000000000014
 20
103.0
 10
46.49999999999999
 20
103.0
  0
LWPOLYLINE
  5
ED
330
E9
100
AcDbEntity
  8
cut-off
100
AcDbPolyline
 90
        2
 70
     0
 43
0.0
 10
46.49999999999999
 20
154.4999999999999
 10
4.999999999999985
 20
154.4999999999999
  0
ARC
  5
EE
330
E9
100
AcDbEntity
  8
cut-off
100
AcDbCircle
 10
5.000000000000007
 20
108.0
 30
0.0
 40
5.0
100
AcDbArc
 50
180.0
 51
270.0
  0
ARC
  5
EF
330
E9
100
AcDbEntity
  8
cut-off
100
AcDbCircle
 10
4.999999999999992
 20
149.4999999999999
 30
0.0
 40
5.0
100
AcDbArc
 50
90.0
 51
180.0
  0
LWPOLYLINE
  5
F0
330
E9
100
AcDbEntity
  8
cut-off
100
AcDbPolyline
 90
        2
 70
     0
 43
0.0
 10
-0.0000000000000071
 20
149.4999999999999
 10
0.0000000000000071
 20
108.0
  0
LWPOLYLINE
  5
F1
330
E9
100
AcDbEntity
  8
cut-off
100
AcDbPolyline
 90
        2
 70
     0
 43
0.0
 10
46.49999999999999
 20
102.9999999999999
 10
4.999999999999985
 20
103.0
  0
ARC
  5
F2
330
E9
100
AcDbEntity
  8
cut-off
100
AcDbCircle
 10
87.99999999999997
 20
108.0
 30
0.0
 40
5.0
100
AcDbArc
 50
270.0
 51
0.0
  0
LWPOLYLINE
  5
F3
330
E9
100
AcDbEntity
  8
cut-off
100
AcDbPolyline
 90
        2
 70
     0
 43
0.0
 10
92.99999999999997
 20
108.0
 10
92.99999999999997
 20
149.4999999999999
  0
ARC
  5
F4
330
E9
100
AcDbEntity
  8
cut-off
100
AcDbCircle
 10
87.99999999999997
 20
149.5
 30
0.0
 40
5.0
100
AcDbArc
 50
0.0
 51
90.0
  0
LWPOLYLINE
  5
F5
330
E9
100
AcDbEntity
  8
cut-off
100
AcDbPolyline
 90
        2
 70
     0
 43
0.0
 10
87.99999999999997
 20
154.4999999999999
 10
46.49999999999996
 20
154.4999999999999
  0
LWPOLYLINE
  5
F6
330
E9
100
AcDbEntity
  8
cut-off
100
AcDbPolyline
 90
        2
 70
     0
 43
0.0
 10
46.49999999999999
 20
103.0
 10
88.0
 20
103.0
  0
LWPOLYLINE
  5
F7
330
E9
100
AcDbEntity
  8
cut-off
100
AcDbPolyline
 90
        2
 70
     0
 43
0.0
 10
97.99999999999997
 20
102.9999999999999
 10
56.49999999999996
 20
103.0
  0
LWPOLYLINE
  5
F8
330
E9
100
AcDbEntity
  8
cut-off
100
AcDbPolyline
 90
        2
 70
     0
 43
0.0
 10
108.0
 20
0.0
 10
149.5
 20
-0.0000000000000142
  0
LWPOLYLINE
  5
F9
330
E9
100
AcDbEntity
  8
cut-off
100
AcDbPolyline
 90
        2
 70
     0
 43
0.0
 10
149.4999999999999
 20
51.49999999999994
 10
108.0
 20
51.49999999999996
  0
ARC
  5
FA
330
E9
100
AcDbEntity
  8
cut-off
100
AcDbCircle
 10
149.4999999999999
 20
46.49999999999999
 30
0.0
 40
5.0
100
AcDbArc
 50
0.0
 51
90.0
  0
ARC
  5
FB
330
E9
100
AcDbEntity
  8
cut-off
100
AcDbCircle
 10
108.0
 20
5.000000000000014
 30
0.0
 40
5.0
100
AcDbArc
 50
180.0
 51
270.0
  0
LWPOLYLINE
  5
FC
330
E9
100
AcDbEntity
  8
cut-off
100
AcDbPolyline
 90
        2
 70
     0
 43
0.0
 10
154.4999999999999
 20
4.999999999999985
 10
154.4999999999999
 20
46.49999999999994
  0
ARC
  5
FD
330
E9
100
AcDbEntity
  8
cut-off
100
AcDbCircle
 10
149.4999999999999
 20
4.999999999999971
 30
0.0
 40
5.0
100
AcDbArc
 50
270.0
 51
0.0
  0
ARC
  5
FE
330
E9
100
AcDbEntity
  8
cut-off
100
AcDbCircle
 10
108.0
 20
46.49999999999996
 30
0.0
 40
5.0
100
AcDbArc
 50
90.0
 51
180.0
  0
LWPOLYLINE
  5
FF
330
E9
100
AcDbEntity
  8
cut-off
100
AcDbPolyline
 90
        2
 70
     0
 43
0.0
 10
103.0
 20
46.49999999999996
 10
103.0
 20
5.0
  0
LWPOLYLINE
  5
100
330
E9
100
AcDbEntity
  8
cut-off
100
AcDbPolyline
 90
        2
 70
     0
 43
0.0
 10
108.0
 20
51.49999999999999
 10
149.5
 20
51.49999999999998
  0
LWPOLYLINE
  5
101
330
E9
100
AcDbEntity
  8
cut-off
100
AcDbPolyline
 90
        2
 70
     0
 43
0.0
 10
149.4999999999999
 20
102.9999999999999
 10
108.0
 20
103.0
  0
ARC
  5
102
330
E9
100
AcDbEntity
  8
cut-off
100
AcDbCircle
 10
149.4999999999999
 20
98.0
 30
0.0
 40
5.0
100
AcDbArc
 50
0.0
 51
90.0
  0
ARC
  5
103
330
E9
100
AcDbEntity
  8
cut-off
100
AcDbCircle
 10
108.0
 20
56.50000000000001
 30
0.0
 40
5.0
100
AcDbArc
 50
180.0
 51
270.0
  0
LWPOLYLINE
  5
104
330
E9
100
AcDbEntity
  8
cut-off
100
AcDbPolyline
 90
        2
 70
     0
 43
0.0
 10
154.4999999999999
 20
56.49999999999998
 10
154.4999999999999
 20
97.99999999999995
  0
ARC
  5
105
330
E9
100
AcDbEntity
  8
cut-off
100
AcDbCircle
 10
149.4999999999999
 20
56.49999999999996
 30
0.0
 40
5.0
100
AcDbArc
 50
270.0
 51
0.0
  0
ARC
  5
106
330
E9
100
AcDbEntity
  8
cut-off
100
AcDbCircle
 10
108.0
 20
97.99999999999997
 30
0.0
 40
5.0
100
AcDbArc
 50
90.0
 51
180.0
  0
LWPOLYLINE
  5
107
330
E9
100
AcDbEntity
  8
cut-off
100
AcDbPolyline
 90
        2
 70
     0
 43
0.0
 10
103.0
 20
97.99999999999997
 10
103.0
 20
56.49999999999999
  0
LWPOLYLINE
  5
108
330
E9
100
AcDbEntity
  8
cut-off
100
AcDbPolyline
 90
        2
 70
     0
 43
0.0
 10
56.49999999999999
 20
0.0
 10
98.0
 20
-0.0000000000000142
  0
LWPOLYLINE
  5
109
330
E9
100
AcDbEntity
  8
cut-off
100
AcDbPolyline
 90
        2
 70
     0
 43
0.0
 10
97.99999999999997
 20
51.49999999999994
 10
56.49999999999996
 20
51.49999999999996
  0
ARC
  5
10A
330
E9
100
AcDbEntity
  8
cut-off
100
AcDbCircle
 10
97.99999999999997
 20
46.49999999999999
 30
0.0
 40
5.0
100
AcDbArc
 50
0.0
 51
90.0
  0
ARC
  5
10B
330
E9
100
AcDbEntity
  8
cut-off
100
AcDbCircle
 10
56.49999999999999
 20
5.000000000000014
 30
0.0
 40
5.0
100
AcDbArc
 50
180.0
 51
270.0
  0
LWPOLYLINE
  5
10C
330
E9
100
AcDbEntity
  8
cut-off
100
AcDbPolyline
 90
        2
 70
     0
 43
0.0
 10
103.0
 20
4.999999999999985
 10
103.0
 20
46.49999999999994
  0
ARC
  5
10D
330
E9
100
AcDbEntity
  8
cut-off
100
AcDbCircle
 10
97.99999999999997
 20
4.999999999999971
 30
0.0
 40
5.0
100
AcDbArc
 50
270.0
 51
0.0
  0
ARC
  5
10E
330
E9
100
AcDbEntity
  8
cut-off
100
AcDbCircle
 10
56.49999999999998
 20
46.49999999999996
 30
0.0
 40
5.0
100
AcDbArc
 50
90.0
 51
180.0
  0
LWPOLYLINE
  5
10F
330
E9
100
AcDbEntity
  8
cut-off
100
AcDbPolyline
 90
        2
 70
     0
 43
0.0
 10
51.49999999999998
 20
46.49999999999996
 10
51.49999999999999
 20
5.0
  0
LWPOLYLINE
  5
110
330
E9
100
AcDbEntity
  8
cut-off
100
AcDbPolyline
 90
        2
 70
     0
 43
0.0
 10
56.49999999999999
 20
51.49999999999999
 10
98.0
 20
51.49999999999998
  0
LWPOLYLINE
  5
111
330
E9
100
AcDbEntity
  8
cut-off
100
AcDbPolyline
 90
        2
 70
     0
 43
0.0
 10
97.99999999999997
 20
102.9999999999999
 10
56.49999999999996
 20
103.0
  0
ARC
  5
112
330
E9
100
AcDbEntity
  8
cut-off
100
AcDbCircle
 10
97.99999999999997
 20
98.0
 30
0.0
 40
5.0
100
AcDbArc
 50
0.0
 51
90.0
  0
ARC
  5
113
330
E9
100
AcDbEntity
  8
cut-off
100
AcDbCircle
 10
56.49999999999999
 20
56.50000000000001
 30
0.0
 40
5.0
100
AcDbArc
 50
180.0
 51
270.0
  0
LWPOLYLINE
  5
114
330
E9
100
AcDbEntity
  8
cut-off
100
AcDbPolyline
 90
        2
 70
     0
 43
0.0
 10
103.0
 20
56.49999999999998
 10
103.0
 20
97.99999999999995
  0
ARC
  5
115
330
E9
100
AcDbEntity
  8
cut-off
100
AcDbCircle
 10
97.99999999999997
 20
56.49999999999996
 30
0.0
 40
5.0
100
AcDbArc
 50
270.0
 51
0.0
  0
ARC
  5
116
330
E9
100
AcDbEntity
  8
cut-off
100
AcDbCircle
 10
56.49999999999998
 20
97.99999999999997
 30
0.0
 40
5.0
100
AcDbArc
 50
90.0
 51
180.0
  0
LWPOLYLINE
  5
117
330
E9
100
AcDbEntity
  8
cut-off
100
AcDbPolyline
 90
        2
 70
     0
 43
0.0
 10
51.49999999999998
 20
97.99999999999997
 10
51.49999999999999
 20
56.49999999999999
  0
LWPOLYLINE
  5
118
330
E9
100
AcDbEntity
  8
cut-off
100
AcDbPolyline
 90
        2
 70
     0
 43
0.0
 10
5.000000000000007
 20
0.0
 10
46.49999999999999
 20
-0.0000000000000142
  0
LWPOLYLINE
  5
119
330
E9
100
AcDbEntity
  8
cut-off
100
AcDbPolyline
 90
        2
 70
     0
 43
0.0
 10
46.49999999999997
 20
51.49999999999994
 10
4.999999999999978
 20
51.49999999999996
  0
ARC
  5
11A
330
E9
100
AcDbEntity
  8
cut-off
100
AcDbCircle
 10
46.49999999999996
 20
46.49999999999999
 30
0.0
 40
5.0
100
AcDbArc
 50
0.0
 51
90.0
  0
ARC
  5
11B
330
E9
100
AcDbEntity
  8
cut-off
100
AcDbCircle
 10
5.0
 20
5.000000000000014
 30
0.0
 40
5.0
100
AcDbArc
 50
180.0
 51
270.0
  0
LWPOLYLINE
  5
11C
330
E9
100
AcDbEntity
  8
cut-off
100
AcDbPolyline
 90
        2
 70
     0
 43
0.0
 10
51.49999999999998
 20
4.999999999999985
 10
51.49999999999996
 20
46.49999999999994
  0
ARC
  5
11D
330
E9
100
AcDbEntity
  8
cut-off
100
AcDbCircle
 10
46.49999999999997
 20
4.999999999999971
 30
0.0
 40
5.0
100
AcDbArc
 50
270.0
 51
0.0
  0
ARC
  5
11E
330
E9
100
AcDbEntity
  8
cut-off
100
AcDbCircle
 10
4.999999999999985
 20
46.49999999999996
 30
0.0
 40
5.0
100
AcDbArc
 50
90.0
 51
180.0
  0
LWPOLYLINE
  5
11F
330
E9
100
AcDbEntity
  8
cut-off
100
AcDbPolyline
 90
        2
 70
     0
 43
0.0
 10
-0.0000000000000142
 20
46.49999999999996
 10
0.0
 20
5.0
  0
LWPOLYLINE
  5
120
330
E9
100
AcDbEntity
  8
cut-off
100
AcDbPolyline
 90
        2
 70
     0
 43
0.0
 10
-0.0000000000000142
 20
97.99999999999997
 10
0.0
 20
56.49999999999999
  0
ARC
  5
121
330
E9
100
AcDbEntity
  8
cut-off
100
AcDbCircle
 10
4.999999999999985
 20
97.99999999999997
 30
0.0
 40
5.0
100
AcDbArc
 50
90.0
 51
180.0
  0
ARC
  5
122
330
E9
100
AcDbEntity
  8
cut-off
100
AcDbCircle
 10
46.49999999999997
 20
56.49999999999996
 30
0.0
 40
5.0
100
AcDbArc
 50
270.0
 51
0.0
  0
LWPOLYLINE
  5
123
330
E9
100
AcDbEntity
  8
cut-off
100
AcDbPolyline
 90
        2
 70
     0
 43
0.0
 10
51.49999999999998
 20
56.49999999999998
 10
51.49999999999996
 20
97.99999999999995
  0
ARC
  5
124
330
E9
100
AcDbEntity
  8
cut-off
100
AcDbCircle
 10
5.0
 20
56.50000000000001
 30
0.0
 40
5.0
100
AcDbArc
 50
180.0
 51
270.0
  0
ARC
  5
125
330
E9
100
AcDbEntity
  8
cut-off
100
AcDbCircle
 10
46.49999999999996
 20
98.0
 30
0.0
 40
5.0
100
AcDbArc
 50
0.0
 51
90.0
  0
LWPOLYLINE
  5
126
330
E9
100
AcDbEntity
  8
cut-off
100
AcDbPolyline
 90
        2
 70
     0
 43
0.0
 10
46.49999999999997
 20
102.9999999999999
 10
4.999999999999978
 20
103.0
  0
LWPOLYLINE
  5
127
330
E9
100
AcDbEntity
  8
cut-off
100
AcDbPolyline
 90
        2
 70
     0
 43
0.0
 10
5.000000000000007
 20
51.49999999999999
 10
46.49999999999999
 20
51.49999999999998
  0
ENDBLK
  5
EB
330
E9
100
AcDbEntity
  8
0
100
AcDbBlockEnd
  0
ENDSEC
  0
SECTION
  2
ENTITIES
  0
ARC
  5
19B
330
21
100
AcDbEntity
  8
cut-off
100
AcDbCircle
 10
383.8361909384164
 20
545.9749999999998
 30
0.0
 40
10.0
100
AcDbArc
 50
0.0
 51
90.0
  0
ARC
  5
19C
330
21
100
AcDbEntity
  8
cut-off
100
AcDbCircle
 10
25.03619093841641
 20
545.9749999999998
 30
0.0
 40
10.0
100
AcDbArc
 50
90.0
 51
180.0
  0
LINE
  5
19E
330
21
100
AcDbEntity
  8
etch
100
AcDbLine
 10
201.2611909384164
 20
545.9749999999998
 30
0.0
 11
201.2611909384163
 21
73.97499999999993
 31
0.0
  0
ARC
  5
1A1
330
21
100
AcDbEntity
  8
cut-off
100
AcDbCircle
 10
383.8361909384163
 20
73.97499999999985
 30
0.0
 40
10.0
100
AcDbArc
 50
270.0
 51
0.0
  0
ARC
  5
1A2
330
21
100
AcDbEntity
  8
cut-off
100
AcDbCircle
 10
25.03619093841631
 20
73.97499999999997
 30
0.0
 40
10.0
100
AcDbArc
 50
180.0
 51
270.0
  0
LINE
  5
1A4
330
21
100
AcDbEntity
  8
cut-off
100
AcDbLine
 10
25.03619093841631
 20
63.97499999999997
 30
0.0
 11
383.8361909384163
 21
63.97499999999985
 31
0.0
  0
LINE
  5
1A6
330
21
100
AcDbEntity
  8
cut-off
100
AcDbLine
 10
393.8361909384163
 20
309.9749999999998
 30
0.0
 11
15.03619093841638
 21
309.975
 31
0.0
  0
LINE
  5
1A7
330
21
100
AcDbEntity
  8
cut-off
100
AcDbLine
 10
15.0361909384164
 20
545.9749999999998
 30
0.0
 11
15.03619093841631
 21
73.97499999999991
 31
0.0
  0
LINE
  5
1A8
330
21
100
AcDbEntity
  8
cut-off
100
AcDbLine
 10
25.03619093841641
 20
555.9749999999999
 30
0.0
 11
393.8361909384162
 21
555.9749999999999
 31
0.0
  0
LINE
  5
1A9
330
21
100
AcDbEntity
  8
cut-off
100
AcDbLine
 10
393.8361909384162
 20
601.9751666666666
 30
0.0
 11
393.8361909384163
 21
63.97499999999985
 31
0.0
  0
LINE
  5
1AC
330
21
100
AcDbEntity
  8
cut-off
100
AcDbLine
 10
157.8361909384164
 20
555.9749999999999
 30
0.0
 11
157.8361909384164
 21
575.9749999999999
 31
0.0
  0
LINE
  5
1B1
330
21
100
AcDbEntity
  8
cut-off
100
AcDbLine
 10
157.8361909384164
 20
575.9749999999999
 30
0.0
 11
393.8361909384163
 21
575.9749999999999
 31
0.0
  0
LINE
  5
1B3
330
21
100
AcDbEntity
  8
cut-off
100
AcDbLine
 10
393.8361909384163
 20
565.9749999999998
 30
0.0
 11
157.8361909384164
 21
565.9749999999998
 31
0.0
  0
LINE
  5
1B5
330
21
100
AcDbEntity
  8
cut-off
100
AcDbLine
 10
393.8361909384162
 20
601.9751666666666
 30
0.0
 11
629.8361909384162
 21
601.9751666666666
 31
0.0
  0
LINE
  5
1B6
330
21
100
AcDbEntity
  8
cut-off
100
AcDbLine
 10
629.8361909384162
 20
601.9751666666666
 30
0.0
 11
629.8361909384162
 21
63.97499999999985
 31
0.0
  0
LINE
  5
1B7
330
21
100
AcDbEntity
  8
cut-off
100
AcDbLine
 10
629.8361909384162
 20
512.3084999999998
 30
0.0
 11
393.8361909384163
 21
512.3084999999998
 31
0.0
  0
LINE
  5
1BB
330
21
100
AcDbEntity
  8
cut-off
100
AcDbLine
 10
629.8361909384162
 20
422.6417999999998
 30
0.0
 11
393.8361909384163
 21
422.6417999999998
 31
0.0
  0
LINE
  5
1BF
330
21
100
AcDbEntity
  8
cut-off
100
AcDbLine
 10
629.8361909384162
 20
332.9750999999999
 30
0.0
 11
393.8361909384163
 21
332.9750999999999
 31
0.0
  0
LINE
  5
1C3
330
21
100
AcDbEntity
  8
cut-off
100
AcDbLine
 10
629.8361909384162
 20
243.3083999999999
 30
0.0
 11
393.8361909384163
 21
243.3083999999999
 31
0.0
  0
LINE
  5
1C7
330
21
100
AcDbEntity
  8
cut-off
100
AcDbLine
 10
629.8361909384162
 20
153.6416999999998
 30
0.0
 11
393.8361909384163
 21
153.6416999999998
 31
0.0
  0
LINE
  5
1C8
330
21
100
AcDbEntity
  8
cut-off
100
AcDbLine
 10
275.8361909384163
 20
555.9749999999999
 30
0.0
 11
275.8361909384163
 21
575.9749999999999
 31
0.0
  0
LINE
  5
1CF
330
21
100
AcDbEntity
  8
cut-off
100
AcDbLine
 10
629.8361909384162
 20
63.97499999999985
 30
0.0
 11
393.8361909384163
 21
63.97499999999985
 31
0.0
  0
LINE
  5
1E5
330
21
100
AcDbEntity
  8
etch
100
AcDbLine
 10
570.8361906326615
 20
505.9585004685949
 30
0.0
 11
452.8361906326615
 21
505.9585004685949
 31
0.0
  0
LINE
  5
1E6
330
21
100
AcDbEntity
  8
etch
100
AcDbLine
 10
570.8361906326615
 20
428.9917999999999
 30
0.0
 11
452.8361906326615
 21
428.9917999999999
 31
0.0
  0
LINE
  5
1E7
330
21
100
AcDbEntity
  8
etch
100
AcDbLine
 10
570.8361906326615
 20
159.9916999999999
 30
0.0
 11
452.8361906326615
 21
159.9916999999999
 31
0.0
  0
LINE
  5
1E8
330
21
100
AcDbEntity
  8
etch
100
AcDbLine
 10
570.8361906326615
 20
236.9584004685949
 30
0.0
 11
452.8361906326615
 21
236.9584004685949
 31
0.0
  0
ENDSEC
  0
SECTION
  2
OBJECTS
  0
DICTIONARY
  5
C
330
0
100
AcDbDictionary
281
     1
  3
ACAD_COLOR
350
1C
  3
ACAD_GROUP
350
D
  3
ACAD_LAYOUT
350
1A
  3
ACAD_MATERIAL
350
1B
  3
ACAD_MLINESTYLE
350
17
  3
ACAD_PLOTSETTINGS
350
19
  3
ACAD_PLOTSTYLENAME
350
E
  0
DICTIONARY
  5
1C
102
{ACAD_REACTORS
330
C
102
}
330
C
100
AcDbDictionary
281
     1
  0
DICTIONARY
  5
D
102
{ACAD_REACTORS
330
C
102
}
330
C
100
AcDbDictionary
281
     1
  0
DICTIONARY
  5
1A
102
{ACAD_REACTORS
330
C
102
}
330
C
100
AcDbDictionary
281
     1
  3
Layout1
350
20
  3
Layout2
350
28
  3
Model
350
24
  0
DICTIONARY
  5
1B
102
{ACAD_REACTORS
330
C
102
}
330
C
100
AcDbDictionary
281
     1
  0
DICTIONARY
  5
17
102
{ACAD_REACTORS
330
C
102
}
330
C
100
AcDbDictionary
281
     1
  3
Standard
350
18
  0
DICTIONARY
  5
19
102
{ACAD_REACTORS
330
C
102
}
330
C
100
AcDbDictionary
281
     1
  0
ACDBDICTIONARYWDFLT
  5
E
102
{ACAD_REACTORS
330
C
102
}
330
C
100
AcDbDictionary
281
     1
  3
Normal
350
F
100
AcDbDictionaryWithDefault
340
F
  0
LAYOUT
  5
20
102
{ACAD_REACTORS
330
1A
102
}
330
1A
100
AcDbPlotSettings
  1

  2
Brother HL-1110 series
  4

  6

 40
0.0
 41
0.0
 42
0.0
 43
0.0
 44
0.0
 45
0.0
 46
0.0
 47
0.0
 48
0.0
 49
0.0
140
0.0
141
0.0
142
1.0
143
1.0
 70
   688
 72
     0
 73
     0
 74
     5
  7

 75
    16
147
1.0
 76
     0
 77
     2
 78
   300
148
0.0
149
0.0
100
AcDbLayout
  1
Layout1
 70
     1
 71
     1
 10
0.0
 20
0.0
 11
420.0
 21
297.0
 12
0.0
 22
0.0
 32
0.0
 14
1.000000000000000E+20
 24
1.000000000000000E+20
 34
1.000000000000000E+20
 15
-1.000000000000000E+20
 25
-1.000000000000000E+20
 35
-1.000000000000000E+20
146
0.0
 13
0.0
 23
0.0
 33
0.0
 16
1.0
 26
0.0
 36
0.0
 17
0.0
 27
1.0
 37
0.0
 76
     0
330
1D
  0
LAYOUT
  5
28
102
{ACAD_REACTORS
330
1A
102
}
330
1A
100
AcDbPlotSettings
  1

  2
Brother HL-1110 series
  4

  6

 40
0.0
 41
0.0
 42
0.0
 43
0.0
 44
0.0
 45
0.0
 46
0.0
 47
0.0
 48
0.0
 49
0.0
140
0.0
141
0.0
142
1.0
143
1.0
 70
   688
 72
     0
 73
     0
 74
     5
  7

 75
    16
147
1.0
 76
     0
 77
     2
 78
   300
148
0.0
149
0.0
100
AcDbLayout
  1
Layout2
 70
     1
 71
     2
 10
0.0
 20
0.0
 11
12.0
 21
9.0
 12
0.0
 22
0.0
 32
0.0
 14
0.0
 24
0.0
 34
0.0
 15
0.0
 25
0.0
 35
0.0
146
0.0
 13
0.0
 23
0.0
 33
0.0
 16
1.0
 26
0.0
 36
0.0
 17
0.0
 27
1.0
 37
0.0
 76
     0
330
25
  0
LAYOUT
  5
24
102
{ACAD_REACTORS
330
1A
102
}
330
1A
100
AcDbPlotSettings
  1

  2
Brother HL-1110 series
  4
Letter
  6

 40
5.027083396911621
 41
5.027085304260253
 42
5.027084350585937
 43
5.027069091796875
 44
215.8999938964844
 45
279.3999938964844
 46
0.0
 47
0.0
 48
0.0
 49
0.0
140
0.0
141
0.0
142
1.0
143
1.0
 70
 11952
 72
     1
 73
     1
 74
     0
  7

 75
     0
147
1.0
 76
     0
 77
     2
 78
   300
148
-8.8218217314983
149
-27.06177156075057
100
AcDbLayout
  1
Model
 70
     1
 71
     0
 10
0.0
 20
0.0
 11
12.0
 21
9.0
 12
0.0
 22
0.0
 32
0.0
 14
0.0
 24
0.0
 34
0.0
 15
0.0
 25
0.0
 35
0.0
146
0.0
 13
0.0
 23
0.0
 33
0.0
 16
1.0
 26
0.0
 36
0.0
 17
0.0
 27
1.0
 37
0.0
 76
     0
330
21
  0
MLINESTYLE
  5
18
102
{ACAD_REACTORS
330
17
102
}
330
17
100
AcDbMlineStyle
  2
STANDARD
 70
     0
  3

 62
   256
 51
90.0
 52
90.0
 71
     2
 49
0.5
 62
   256
  6
BYLAYER
 49
-0.5
 62
   256
  6
BYLAYER
  0
ACDBPLACEHOLDER
  5
F
102
{ACAD_REACTORS
330
E
102
}
330
E
  0
ENDSEC
  0
EOF
